<?xml version="1.0" encoding="utf-8"?>
<!-- Generator: Adobe Illustrator 15.0.2, SVG Export Plug-In . SVG Version: 6.00 Build 0)  -->
<!DOCTYPE svg PUBLIC "-//W3C//DTD SVG 1.1//EN" "http://www.w3.org/Graphics/SVG/1.1/DTD/svg11.dtd">
<svg version="1.1" id="arrow_x5F_up" xmlns="http://www.w3.org/2000/svg" xmlns:xlink="http://www.w3.org/1999/xlink" x="0px"
	 y="0px" width="28px" height="28px" viewBox="0 0 28 28" enable-background="new 0 0 28 28" xml:space="preserve">
<path fill="#1F2023" d="M24.098,11.33l-8.772-8.77c-0.092-0.093-0.203-0.167-0.326-0.217c-0.122-0.051-0.252-0.077-0.382-0.077
	s-0.26,0.026-0.382,0.077c-0.123,0.051-0.234,0.125-0.327,0.217l-8.772,8.771c-0.391,0.391-0.391,1.023,0,1.414s1.023,0.391,1.414,0
	l7.066-7.065v19.055c0,0.552,0.447,1,1,1s1-0.448,1-1V5.68l7.066,7.064c0.391,0.391,1.023,0.391,1.414,0S24.488,11.721,24.098,11.33
	z"/>
</svg>
