<?xml version="1.0" encoding="utf-8"?>
<!-- Generator: Adobe Illustrator 15.0.2, SVG Export Plug-In . SVG Version: 6.00 Build 0)  -->
<!DOCTYPE svg PUBLIC "-//W3C//DTD SVG 1.1//EN" "http://www.w3.org/Graphics/SVG/1.1/DTD/svg11.dtd">
<svg version="1.1" id="arrow" xmlns="http://www.w3.org/2000/svg" xmlns:xlink="http://www.w3.org/1999/xlink" x="0px" y="0px"
	 width="28px" height="28px" viewBox="0 0 28 28" enable-background="new 0 0 28 28" xml:space="preserve">
<path fill="#1F2023" d="M23.48,15.13c-0.391-0.391-1.023-0.391-1.414,0L15,22.195V3.141c0-0.552-0.447-1-1-1c-0.552,0-1,0.448-1,1
	v19.055l-7.066-7.064c-0.391-0.391-1.023-0.391-1.414,0s-0.391,1.023,0,1.414l8.772,8.771c0.092,0.093,0.203,0.166,0.326,0.217
	c0.122,0.051,0.251,0.077,0.382,0.077c0.13,0,0.26-0.026,0.382-0.077c0.123-0.051,0.234-0.124,0.326-0.217l8.772-8.771
	C23.871,16.153,23.871,15.521,23.48,15.13z"/>
</svg>
