<?xml version="1.0" encoding="utf-8"?>
<!-- Generator: Adobe Illustrator 15.0.2, SVG Export Plug-In . SVG Version: 6.00 Build 0)  -->
<!DOCTYPE svg PUBLIC "-//W3C//DTD SVG 1.1//EN" "http://www.w3.org/Graphics/SVG/1.1/DTD/svg11.dtd">
<svg version="1.1" id="bulb_1_" xmlns="http://www.w3.org/2000/svg" xmlns:xlink="http://www.w3.org/1999/xlink" x="0px" y="0px"
	 width="28px" height="28px" viewBox="0 0 28 28" enable-background="new 0 0 28 28" xml:space="preserve">
<g id="bulb">
	<g>
		<path fill="#231F20" d="M23.805,8.75c0.134,0.653,0.202,1.325,0.202,1.998c0,0.676-0.068,1.351-0.203,2.007
			c-0.132,0.64-0.329,1.269-0.583,1.87c-0.251,0.59-0.562,1.159-0.923,1.691c-0.358,0.526-0.769,1.02-1.223,1.471l-0.012,0.013
			l-0.015,0.012c-0.096,0.08-0.188,0.168-0.274,0.26c-0.636,0.668-0.987,1.544-0.994,2.467c0.004,0.049,0.007,0.101,0.007,0.149
			c0,0.372-0.113,0.731-0.32,1.032c0.039,0.051,0.073,0.105,0.105,0.16c0.135,0.234,0.206,0.502,0.206,0.775v0.148
			c0,0.31-0.091,0.608-0.26,0.861c0.169,0.252,0.26,0.55,0.26,0.86v0.149c0,0.763-0.551,1.399-1.273,1.534
			c-0.162,0.692-0.783,1.21-1.521,1.21h-5.78c-0.74,0-1.361-0.518-1.521-1.21c-0.724-0.135-1.273-0.771-1.273-1.534v-0.149
			c0-0.311,0.091-0.608,0.258-0.86c-0.167-0.253-0.258-0.552-0.258-0.861v-0.148c0-0.273,0.071-0.541,0.206-0.775
			c0.032-0.055,0.067-0.109,0.106-0.16c-0.207-0.301-0.321-0.66-0.321-1.032c0-0.05,0.002-0.101,0.006-0.15
			C8.4,19.614,8.047,18.738,7.412,18.07c-0.086-0.092-0.178-0.18-0.273-0.26l-0.014-0.012l-0.014-0.013
			c-0.453-0.451-0.863-0.944-1.222-1.471c-0.361-0.532-0.671-1.102-0.922-1.691c-0.255-0.601-0.452-1.23-0.584-1.87
			c-0.135-0.656-0.203-1.331-0.203-2.007c0-0.673,0.067-1.345,0.201-1.998c0.13-0.637,0.325-1.263,0.578-1.862
			C5.207,6.3,5.515,5.734,5.873,5.204c0.354-0.525,0.762-1.019,1.21-1.467c0.449-0.448,0.942-0.855,1.467-1.21
			c0.531-0.358,1.097-0.666,1.685-0.914c0.599-0.253,1.225-0.447,1.862-0.578c0.653-0.134,1.325-0.201,1.997-0.201
			c0.674,0,1.344,0.067,1.998,0.201c0.637,0.131,1.264,0.325,1.861,0.578c0.587,0.249,1.155,0.556,1.685,0.914
			c0.525,0.355,1.019,0.762,1.467,1.21c0.447,0.449,0.855,0.942,1.21,1.467c0.359,0.53,0.666,1.097,0.913,1.684
			C23.481,7.486,23.676,8.113,23.805,8.75z M23.517,10.748c0-5.204-4.22-9.423-9.424-9.423c-5.203,0-9.422,4.219-9.422,9.423
			c0,2.615,1.065,4.98,2.787,6.688c0.109,0.093,0.212,0.191,0.311,0.296c0.7,0.735,1.129,1.73,1.129,2.827
			c-0.004,0.042-0.006,0.084-0.006,0.128c0,0.328,0.119,0.629,0.316,0.86H9.97h8.246h0.764c0.195-0.231,0.314-0.532,0.314-0.86
			c0-0.044-0.001-0.086-0.005-0.128c0-1.097,0.43-2.092,1.13-2.827c0.099-0.104,0.202-0.203,0.31-0.296
			C22.449,15.728,23.517,13.362,23.517,10.748z"/>
		<path fill="#FFD73E" d="M14.093,1.325c5.204,0,9.424,4.219,9.424,9.423c0,2.615-1.067,4.98-2.788,6.688
			c-0.107,0.093-0.211,0.191-0.31,0.296c-0.7,0.735-1.13,1.73-1.13,2.827c0.004,0.042,0.005,0.084,0.005,0.128
			c0,0.328-0.119,0.629-0.314,0.86h-0.764H9.97H9.207c-0.197-0.231-0.316-0.532-0.316-0.86c0-0.044,0.002-0.086,0.006-0.128
			c0-1.097-0.43-2.092-1.129-2.827c-0.099-0.104-0.202-0.203-0.311-0.296c-1.721-1.708-2.787-4.073-2.787-6.688
			C4.671,5.543,8.89,1.325,14.093,1.325z"/>
	</g>
	<g>
	</g>
</g>
<path fill="#E6E7E8" d="M18.781,22.696c0,0.417-0.499,0.76-1.106,0.76h-7.163c-0.608,0-1.106-0.343-1.106-0.76
	s0.498-0.759,1.106-0.759h7.163C18.282,21.938,18.781,22.279,18.781,22.696z"/>
<path fill="#E6E7E8" d="M18.781,24.599c0,0.416-0.499,0.759-1.106,0.759h-7.163c-0.608,0-1.106-0.343-1.106-0.759
	c0-0.418,0.498-0.761,1.106-0.761h7.163C18.282,23.838,18.781,24.181,18.781,24.599z"/>
<path fill="#E6E7E8" d="M17.759,25.78c0,0.529-0.498,0.962-1.107,0.962h-5.117c-0.609,0-1.107-0.433-1.107-0.962H17.759z"/>
</svg>
