<?xml version="1.0" encoding="utf-8"?>
<!-- Generator: Adobe Illustrator 15.0.2, SVG Export Plug-In . SVG Version: 6.00 Build 0)  -->
<!DOCTYPE svg PUBLIC "-//W3C//DTD SVG 1.1//EN" "http://www.w3.org/Graphics/SVG/1.1/DTD/svg11.dtd">
<svg version="1.1" id="eye" xmlns="http://www.w3.org/2000/svg" xmlns:xlink="http://www.w3.org/1999/xlink" x="0px" y="0px"
	 width="28px" height="28px" viewBox="0 0 28 28" enable-background="new 0 0 28 28" xml:space="preserve">
<path fill="#1F2023" d="M26.893,13.632C23.446,10.187,18.868,8.29,14,8.29c-4.868,0-9.447,1.897-12.893,5.342
	c-0.096,0.096-0.148,0.252-0.146,0.389c0.002,0.129,0.055,0.252,0.146,0.344C4.554,17.811,9.133,19.709,14,19.709
	s9.445-1.898,12.892-5.345c0.089-0.089,0.143-0.234,0.147-0.36C27.044,13.865,26.991,13.73,26.893,13.632z M9.614,14
	c0-2.419,1.968-4.387,4.386-4.387c2.418,0,4.385,1.968,4.385,4.387c0,2.418-1.967,4.385-4.385,4.385
	C11.582,18.385,9.614,16.418,9.614,14z M12.549,9.358C10.566,9.981,9.114,11.814,9.114,14c0,2.187,1.454,4.02,3.438,4.641
	c-3.894-0.322-7.525-1.935-10.388-4.643C5.025,11.292,8.656,9.682,12.549,9.358z M15.447,18.641
	c1.984-0.621,3.438-2.455,3.438-4.641s-1.452-4.019-3.434-4.642c3.893,0.323,7.523,1.934,10.384,4.639
	C22.974,16.706,19.342,18.318,15.447,18.641z"/>
<path fill="#1F2023" d="M15.588,12.717c-0.609,0-1.104-0.495-1.104-1.104c0-0.198,0.065-0.374,0.156-0.534
	c-0.247-0.065-0.501-0.11-0.769-0.11c-1.674,0-3.031,1.357-3.031,3.031c0,1.672,1.357,3.029,3.031,3.029
	c1.675,0,3.029-1.357,3.029-3.029c0-0.613-0.185-1.182-0.497-1.658C16.202,12.568,15.916,12.717,15.588,12.717z"/>
</svg>
