<?xml version="1.0" encoding="utf-8"?>
<!-- Generator: Adobe Illustrator 15.0.2, SVG Export Plug-In . SVG Version: 6.00 Build 0)  -->
<!DOCTYPE svg PUBLIC "-//W3C//DTD SVG 1.1//EN" "http://www.w3.org/Graphics/SVG/1.1/DTD/svg11.dtd">
<svg version="1.1" id="heart" xmlns="http://www.w3.org/2000/svg" xmlns:xlink="http://www.w3.org/1999/xlink" x="0px" y="0px"
	 width="28px" height="28px" viewBox="0 0 28 28" enable-background="new 0 0 28 28" xml:space="preserve">
<path fill="#F05368" d="M26.911,7.281L26.911,7.281c-0.82-2.649-3.309-4.576-6.25-4.576c-1.866,0-3.55,0.775-4.739,2.018l0,0
	c0,0-1.155,1.164-1.796,1.782c-0.642-0.618-1.795-1.782-1.795-1.782l0,0C11.14,3.48,9.456,2.705,7.59,2.705
	c-2.943,0-5.43,1.926-6.25,4.576l0,0C-1.396,15.188,14.126,26,14.126,26S29.647,15.188,26.911,7.281z"/>
</svg>
