<?xml version="1.0" encoding="utf-8"?>
<!-- Generator: Adobe Illustrator 15.0.2, SVG Export Plug-In . SVG Version: 6.00 Build 0)  -->
<!DOCTYPE svg PUBLIC "-//W3C//DTD SVG 1.1//EN" "http://www.w3.org/Graphics/SVG/1.1/DTD/svg11.dtd">
<svg version="1.1" id="search_x5F_icon" xmlns="http://www.w3.org/2000/svg" xmlns:xlink="http://www.w3.org/1999/xlink" x="0px"
	 y="0px" width="28px" height="28px" viewBox="0 0 28 28" enable-background="new 0 0 28 28" xml:space="preserve">
<path fill="#F05368" d="M17.545,16.684l-0.335,0.335l-0.813-0.813c1.246-1.42,2.009-3.275,2.009-5.309
	c0-4.446-3.616-8.063-8.06-8.063c-4.445,0-8.062,3.617-8.062,8.063c0,4.445,3.617,8.063,8.062,8.063
	c2.052,0,3.921-0.777,5.346-2.045l0.812,0.812l-0.372,0.372l7.013,7.012l1.414-1.414L17.545,16.684z M10.345,16.959
	c-3.343,0-6.062-2.72-6.062-6.063c0-3.343,2.719-6.063,6.062-6.063c3.341,0,6.06,2.72,6.06,6.063
	C16.405,14.239,13.687,16.959,10.345,16.959z"/>
</svg>
