<?xml version="1.0" encoding="utf-8"?>
<!-- Generator: Adobe Illustrator 15.0.2, SVG Export Plug-In . SVG Version: 6.00 Build 0)  -->
<!DOCTYPE svg PUBLIC "-//W3C//DTD SVG 1.1//EN" "http://www.w3.org/Graphics/SVG/1.1/DTD/svg11.dtd">
<svg version="1.1" id="support" xmlns="http://www.w3.org/2000/svg" xmlns:xlink="http://www.w3.org/1999/xlink" x="0px" y="0px"
	 width="28px" height="28px" viewBox="0 0 28 28" enable-background="new 0 0 28 28" xml:space="preserve">
<path d="M26.938,10.564v-0.112l-0.027,0.007c-1.235-4.442-4.722-7.95-9.148-9.216l0.006-0.025h-0.089
	c-1.132-0.316-2.321-0.492-3.554-0.492c-6.093,0-11.228,4.129-12.786,9.733l-0.026-0.006v0.109
	c-0.296,1.101-0.469,2.252-0.469,3.445s0.173,2.345,0.469,3.445v0.109l0.026-0.007c1.251,4.5,4.81,8.037,9.322,9.26l-0.004,0.017
	l0.067-0.001c1.088,0.289,2.224,0.458,3.401,0.458c1.284,0,2.522-0.192,3.698-0.534l0.067-0.001l-0.004-0.016
	c4.371-1.294,7.8-4.78,9.023-9.182l0.027,0.007v-0.112c0.296-1.101,0.469-2.251,0.469-3.443S27.233,11.665,26.938,10.564z
	 M10.771,1.68l0.989,4.034c-2.832,0.81-5.074,3.03-5.908,5.852l-4.028-0.987C3.03,6.261,6.446,2.861,10.771,1.68z M10.78,26.33
	c-4.332-1.178-7.75-4.573-8.956-8.893l4.028-0.988c0.835,2.825,3.081,5.046,5.918,5.853L10.78,26.33z M5.995,14.008
	c0-4.483,3.647-8.13,8.13-8.13c4.482,0,8.129,3.647,8.129,8.13c0,4.482-3.646,8.129-8.129,8.129
	C9.642,22.137,5.995,18.49,5.995,14.008z M17.752,26.257l-1.114-3.996c2.767-0.844,4.943-3.043,5.762-5.82l4.026,0.996
	C25.245,21.663,21.951,25.012,17.752,26.257z M22.399,11.577c-0.815-2.772-2.988-4.963-5.745-5.813l0.988-4.034
	c4.247,1.222,7.593,4.587,8.783,8.85L22.399,11.577z"/>
</svg>
